<svg width="100" height="100" viewBox="0 0 100 100" fill="none" xmlns="http://www.w3.org/2000/svg">
<g clip-path="url(#clip0_317_125)">
<path d="M80 0H20C8.9543 0 0 8.9543 0 20V80C0 91.0457 8.9543 100 20 100H80C91.0457 100 100 91.0457 100 80V20C100 8.9543 91.0457 0 80 0Z" fill="#111111"/>
<path d="M22.2531 76V29.81H39.4271C42.5684 29.81 45.3377 30.3887 47.7351 31.546C50.1737 32.662 52.0751 34.3153 53.4391 36.506C54.8031 38.6553 55.4851 41.28 55.4851 44.38C55.4851 47.5627 54.7204 50.27 53.1911 52.502C51.7031 54.734 49.6777 56.3873 47.1151 57.462L57.7171 76H48.1691L36.8231 55.726L42.2791 58.95H30.6851V76H22.2531ZM30.6851 51.51H39.5511C41.0804 51.51 42.4031 51.2207 43.5191 50.642C44.6351 50.022 45.5031 49.1747 46.1231 48.1C46.7431 47.0253 47.0531 45.7853 47.0531 44.38C47.0531 42.9333 46.7431 41.6933 46.1231 40.66C45.5031 39.5853 44.6351 38.7587 43.5191 38.18C42.4031 37.56 41.0804 37.25 39.5511 37.25H30.6851V51.51Z" fill="white"/>
<path d="M66.4053 76V67.32H74.5893V76H66.4053Z" fill="#FF5722"/>
</g>
<defs>
<clipPath id="clip0_317_125">
<rect width="100" height="100" fill="white"/>
</clipPath>
</defs>
</svg>
